<?xml version="1.0" encoding="UTF-8" standalone="no"?>
<!-- Created with Inkscape (http://www.inkscape.org/) -->

<svg
   xmlns:svg="http://www.w3.org/2000/svg"
   xmlns="http://www.w3.org/2000/svg"
   version="1.1"
   width="500pt"
   height="215pt"
   viewBox="0 0 500 215"
   id="svg2">
  <defs
     id="defs31" />
  <g
     id="surface0">
    <path
       d="m 9.472656,202.35937 481.437504,0 L 202.05469,9.488281 9.472656,202.35937"
       id="path5"
       style="fill:#f3f3ff;fill-opacity:1;fill-rule:nonzero;stroke:none" />
    <path
       d="M -0.00125,-0.00124419 51.8741,51.873509"
       transform="matrix(3.396739,0,0,-3.401899,9.476902,202.35514)"
       id="path7"
       style="fill:none;stroke:#738f38;stroke-width:1.59404004;stroke-linecap:butt;stroke-linejoin:miter;stroke-miterlimit:10;stroke-opacity:1" />
    <path
       d="m 202.05469,9.488281 c -5.76172,3.945313 -16.375,9.101563 -25.01172,11.386719 l 13.64062,13.664062 c 2.26563,-8.652343 7.42969,-19.285156 11.3711,-25.050781"
       id="path9"
       style="fill:#738f38;fill-opacity:1;fill-rule:nonzero;stroke:none" />
    <path
       d="m 95.695312,83.964844 c -0.742187,1.382812 -0.265624,2.820312 0.425782,3.507812 0.636718,0.640625 1.804687,0.851563 2.757812,-0.105468 1.007813,-1.007813 1.273434,-2.871094 -0.160156,-4.304688 -1.539062,-1.542969 -4.085938,-1.011719 -5.835938,0.742188 -1.644531,1.648437 -1.433593,3.988281 -1.273437,4.890624 -1.910156,-0.53125 -4.140625,0.53125 -5.785156,2.179688 -3.609375,3.617188 -1.964844,9.089844 -1.007813,10.04688 0.371094,0.37109 0.742188,0 1.007813,-0.26563 0.371093,-0.37109 0.582031,-0.58594 0.316406,-1.0625 -1.75,-3.457031 -0.582031,-6.324219 0.636719,-7.546875 1.117187,-1.117187 2.125,-1.0625 3.027344,-0.160156 0.582031,0.585937 1.75,2.496093 2.492187,3.773437 l 2.972656,4.996094 c 1.328125,2.17969 1.167969,4.03906 0.160157,5.05078 -0.105469,0.10547 -0.796876,0.79688 -1.804688,0.95703 0.742188,-1.38281 0.265625,-2.8164 -0.476562,-3.5625 -0.636719,-0.63672 -1.804688,-0.85156 -2.761719,0.10547 -1.007813,1.01172 -1.167969,2.8711 0.265625,4.30469 1.488281,1.48828 3.980468,1.01172 5.734375,-0.74219 1.644531,-1.64844 1.484375,-3.93359 1.324219,-4.83594 1.910156,0.53125 4.085942,-0.58593 5.734372,-2.234371 3.60938,-3.613281 2.07032,-9.089844 1.11328,-10.046875 -0.42578,-0.425782 -0.84765,0 -1.11328,0.265625 -0.32031,0.320312 -0.58593,0.585937 -0.32031,1.066406 1.85938,3.453125 0.63672,6.375 -0.53125,7.546875 -1.11328,1.117188 -2.17578,1.117188 -3.078125,0.210938 -0.636719,-0.636719 -1.75,-2.496094 -2.601563,-3.878907 C 96.4375,93.960938 94.367188,90.609375 94.050781,89.972656 92.722656,87.792969 92.882812,85.933594 93.890625,84.921875 94.050781,84.761719 94.6875,84.125 95.695312,83.964844 z m 0,0"
       id="path11"
       style="fill:#738f38;fill-opacity:1;fill-rule:nonzero;stroke:none" />
    <path
       d="M 56.6949,56.693887 136.04605,3.791445"
       transform="matrix(3.396739,0,0,-3.401899,9.476902,202.35514)"
       id="path13"
       style="fill:none;stroke:#3333ff;stroke-width:1.59404004;stroke-linecap:butt;stroke-linejoin:miter;stroke-miterlimit:10;stroke-opacity:1" />
    <path
       d="m 490.91016,202.35937 c -5.00391,-4.90234 -12.16797,-14.33984 -16.09766,-22.40234 l -10.73438,16.12891 c 8.94532,0.53125 20.39454,3.52343 26.83204,6.27343"
       id="path15"
       style="fill:#3333ff;fill-opacity:1;fill-rule:nonzero;stroke:none" />
    <path
       d="m 371.83594,87.25 c 0.53125,-0.582031 0.58593,-0.636719 0.63672,-0.742188 0.53125,-0.796874 0.47656,-1.863281 -0.58204,-2.605468 -1.7539,-1.167969 -3.23828,0.210937 -4.03515,0.957031 l -3.23828,2.921875 c -1.48438,1.382812 -3.875,3.5625 -5.14844,4.730469 -0.6875,0.585937 -2.28125,0.746093 -2.44141,0.746093 -0.58203,-0.05469 -1.69531,0.05469 -2.8125,-0.691406 -2.07031,-1.328125 -0.95312,-3.082031 -0.42187,-3.828125 1.3789,-2.070312 4.1914,-4.09375 6.79297,-5.847656 0.95312,-0.6875 1.16797,-0.847656 1.53906,-1.433594 1.32422,-1.964843 0.0508,-4.410156 -1.80469,-5.632812 -3.60937,-2.394531 -8.33203,1.167969 -8.75781,1.804687 -0.32031,0.480469 0.16016,0.796875 0.47656,1.011719 0.3711,0.265625 0.63672,0.425781 1.0625,0.105469 3.66016,-3.03125 5.73047,-2.125 6.21094,-1.753906 0.26562,0.105468 0.58203,0.371093 0.10547,1.0625 -0.53125,0.796874 -1.48828,1.4375 -2.07031,1.808593 -3.50391,2.550781 -5.51954,3.933594 -6.6875,5.6875 -2.60157,3.878907 0.42578,6.644531 2.49609,8.027344 0.84766,0.53125 2.01562,1.167969 3.82031,1.113281 -3.66406,3.5625 -7.64453,4.042969 -9.98047,2.5 -0.47656,-0.265625 -1.3789,-0.957031 -1.80468,-1.859375 1.38281,0.316407 2.49609,-0.214843 3.13281,-1.171875 0.79687,-1.167968 0.0547,-2.230468 -0.58203,-2.65625 -1.32813,-0.851562 -3.1875,-0.585937 -4.19532,0.902344 -1.11328,1.753906 -0.15625,4.199219 2.60157,6.007812 3.875,2.605468 10.13672,2.976568 13.90625,-0.53125 L 371.83594,87.25 z m 0,0"
       id="path17"
       style="fill:#3333ff;fill-opacity:1;fill-rule:nonzero;stroke:none" />
    <path
       d="m -0.00125,-0.00124419 134.9226,0"
       transform="matrix(3.396739,0,0,-3.401899,9.476902,202.35514)"
       id="path19"
       style="fill:none;stroke:#ff3333;stroke-width:1.59404004;stroke-linecap:round;stroke-linejoin:miter;stroke-miterlimit:10;stroke-opacity:1" />
    <path
       d="m 490.91016,202.35937 c -6.86329,-1.28906 -18.00782,-5.15625 -25.71485,-9.66015 l 0,19.32031 c 7.70703,-4.51562 18.85156,-8.37109 25.71485,-9.66016"
       id="path21"
       style="fill:#ff3333;fill-opacity:1;fill-rule:nonzero;stroke:none" />
    <path
       d="m 188.80078,171.78516 c -1.48437,0.42578 -2.17578,1.80859 -2.17578,2.8164 0,0.90625 0.69141,1.86328 2.01562,1.86328 1.4336,0 2.92188,-1.17187 2.92188,-3.13672 0,-2.17968 -2.125,-3.61328 -4.61719,-3.61328 -2.33594,0 -3.82422,1.75391 -4.35156,2.4961 -1.01172,-1.69922 -3.29297,-2.4961 -5.62891,-2.4961 -5.09375,0 -7.85547,4.9961 -7.85547,6.375 0,0.53516 0.58594,0.53516 0.95704,0.53516 0.53125,0 0.79687,0 0.95703,-0.53516 1.16797,-3.66406 4.08593,-4.88672 5.78515,-4.88672 1.53907,0 2.22657,0.74219 2.22657,2.01954 0,0.79687 -0.53125,3.02734 -0.90235,4.46484 l -1.3789,5.57812 c -0.63672,2.5 -2.07032,3.72266 -3.44922,3.72266 -0.21094,0 -1.16797,0 -1.96485,-0.63672 1.48828,-0.42578 2.17578,-1.80859 2.17578,-2.8164 0,-0.90625 -0.6875,-1.86329 -2.01562,-1.86329 -1.43359,0 -2.91797,1.17188 -2.91797,3.19141 0,2.125 2.17578,3.55859 4.61719,3.55859 2.33594,0 3.82031,-1.7539 4.35156,-2.49609 1.00781,1.75391 3.28906,2.49609 5.625,2.49609 5.09375,0 7.85547,-4.99609 7.85547,-6.32421 0,-0.58594 -0.58594,-0.58594 -0.95703,-0.58594 -0.47656,0 -0.79297,0 -0.95313,0.53515 -1.16797,3.71875 -4.08593,4.94141 -5.73437,4.94141 -1.58985,0 -2.28125,-0.74219 -2.28125,-2.07422 0,-0.84765 0.53125,-2.97656 0.90234,-4.51562 0.26563,-1.01172 1.16797,-4.83985 1.37891,-5.53125 0.63672,-2.44141 2.07031,-3.66407 3.45312,-3.66407 0.21094,0 1.16407,0 1.96094,0.58204 z m 0,0"
       id="path23"
       style="fill:#ff3333;fill-opacity:1;fill-rule:nonzero;stroke:none" />
    <path
       d="m 223.07422,179.06641 12.47265,0 c 0.53125,0 1.59375,0 1.59375,-1.0625 0,-1.16797 -1.0625,-1.16797 -1.59375,-1.16797 l -12.47265,0 0,-12.54297 c 0,-0.48047 0,-1.59766 -1.11328,-1.59766 -1.11328,0 -1.11328,1.0625 -1.11328,1.59766 l 0,12.54297 -12.52735,0 c -0.58203,0 -1.64453,0 -1.64453,1.16797 0,1.0625 1.11328,1.0625 1.64453,1.0625 l 12.52735,0 0,12.54687 c 0,0.53125 0,1.59375 1.05859,1.59375 1.16797,0 1.16797,-1.0625 1.16797,-1.59375 l 0,-12.54687 z m 0,0"
       id="path25"
       style="fill:#ff3333;fill-opacity:1;fill-rule:nonzero;stroke:none" />
    <path
       d="m 273.49609,172.79687 c 0.21485,-0.74609 0.21485,-0.85156 0.21485,-0.95703 0,-0.90234 -0.63672,-1.80859 -1.91016,-1.80859 -2.125,0 -2.60156,1.91406 -2.86719,3.03125 l -1.0625,4.25 c -0.47656,1.91406 -1.27343,5.05078 -1.69922,6.75391 -0.21093,0.84765 -1.48437,1.85937 -1.58984,1.91015 -0.42578,0.32031 -1.43359,1.01172 -2.76172,1.01172 -2.38672,0 -2.4414,-2.07422 -2.4414,-2.97656 0,-2.5 1.27343,-5.6875 2.39062,-8.60938 0.42188,-1.0664 0.52734,-1.33203 0.52734,-2.02343 0,-2.33594 -2.33203,-3.66407 -4.5625,-3.66407 -4.30078,0 -6.36718,5.52735 -6.36718,6.375 0,0.53516 0.63672,0.53516 1.00781,0.53516 0.47656,0 0.74219,0 0.90234,-0.53516 1.37891,-4.51562 3.60938,-4.88672 4.19141,-4.88672 0.32031,0 0.69141,0 0.69141,0.84766 0,0.90625 -0.42579,1.96875 -0.69141,2.66016 -1.59375,4.03906 -2.44141,6.3789 -2.44141,8.44922 0,4.625 4.08594,5.26171 6.47657,5.26171 1.00781,0 2.38671,-0.15625 3.875,-1.22265 -1.11719,5 -4.14063,7.65625 -6.95313,7.65625 -0.53125,0 -1.69922,-0.10547 -2.49609,-0.58594 1.32812,-0.53125 1.96484,-1.59375 1.96484,-2.71094 0,-1.48828 -1.16797,-1.85937 -2.01953,-1.85937 -1.48438,0 -2.91797,1.27734 -2.91797,3.08203 0,2.07422 2.17578,3.5625 5.46875,3.5625 4.66797,0 10.03125,-3.13672 11.25,-8.1875 l 3.82031,-15.35938 z m 0,0"
       id="path27"
       style="fill:#ff3333;fill-opacity:1;fill-rule:nonzero;stroke:none" />
  </g>
</svg>
